<svg version="1.1" id="Layer_1" xmlns="http://www.w3.org/2000/svg" xmlns:xlink="http://www.w3.org/1999/xlink" x="0px" y="0px"
	 viewBox="0 0 200.2 40.9" style="enable-background:new 0 0 200.2 40.9;" xml:space="preserve">
<style type="text/css">
	.st0{fill:#5B6870;}
	.st1{fill:#92979D;}
	.st2{fill:#EBBF12;}
	.st3{fill:#FEE000;}
	.st4{fill:#118292;}
	.st5{fill:#24BFCC;}
</style>
<g>
	<g>
		<path class="st0" d="M56.5,3.1h6.9c3.1,0,5,1.4,5,4.1c0,1.4-0.6,2.6-2.3,3.4l0,0c1.8,0.5,2.8,2.1,2.8,3.9c0,3-2.4,4.6-5.1,4.6
			h-7.3L56.5,3.1z M63.1,9.7c1.5,0,2.4-0.8,2.4-2.1c0-1.4-1-2-2.5-2h-3.4v4.1H63.1z M63.3,16.6c1.6,0,2.6-0.8,2.6-2.3
			s-0.9-2.1-2.6-2.1h-3.8v4.4H63.3z"/>
		<path class="st0" d="M70.8,14.7v-2.3c0-3.2,2.4-5.1,5.3-5.1c2.5,0,5,1.5,5,4.5V14h-7.4v0.6c0,1.5,1.2,2.3,2.7,2.3
			c0.9,0,1.9-0.6,2.5-1.5l2.1,1.2c-0.9,1.8-2.7,2.6-4.8,2.6C73.4,19.4,70.8,17.9,70.8,14.7z M78.4,12.3V12c0-1.6-1.1-2.2-2.2-2.2
			c-1.2,0-2.4,0.6-2.4,2.4v0.2h4.6V12.3z"/>
		<path class="st0" d="M83,14.7v-2.3c0-3.2,2.4-5.1,5.3-5.1c2.5,0,5,1.5,5,4.5V14h-7.4v0.6c0,1.5,1.2,2.3,2.7,2.3
			c0.9,0,1.9-0.6,2.5-1.5l2.1,1.2c-0.9,1.8-2.7,2.6-4.8,2.6C85.5,19.4,83,17.9,83,14.7z M90.5,12.3V12c0-1.6-1.1-2.2-2.2-2.2
			c-1.2,0-2.4,0.6-2.4,2.4v0.2h4.6V12.3z"/>
		<path class="st0" d="M96.3,9.8h-1.6V7.6h1.6V6.1c0-2.2,1.1-3.4,3.3-3.4c0.5,0,0.9,0,1.4,0.1v2.4c-0.4,0-0.7-0.1-1-0.1
			c-0.6,0.1-1,0.3-1,0.9v1.6h2v2.1h-2v9.4h-2.7C96.3,19.1,96.3,9.8,96.3,9.8z"/>
		<path class="st0" d="M102.7,7.6h2.7v1.9l0,0c0.7-1.2,2.4-2.1,3.8-2.1c0.3,0,0.6,0,0.9,0.1V10c-0.4-0.1-0.7-0.1-1-0.1
			c-2.1,0-3.6,1.2-3.6,3.3v5.9h-2.8V7.6z"/>
		<path class="st0" d="M111.5,14.7v-2.3c0-3.2,2.4-5.1,5.3-5.1c2.5,0,5,1.5,5,4.5V14h-7.4v0.6c0,1.5,1.2,2.3,2.7,2.3
			c0.9,0,1.9-0.6,2.5-1.5l2.1,1.2c-0.9,1.8-2.7,2.6-4.8,2.6C114.1,19.4,111.5,17.9,111.5,14.7z M119.1,12.3V12
			c0-1.6-1.1-2.2-2.2-2.2c-1.2,0-2.4,0.6-2.4,2.4v0.2h4.6V12.3z"/>
		<path class="st0" d="M123.6,14.7v-2.3c0-3.2,2.4-5.1,5.3-5.1c2.5,0,5,1.5,5,4.5V14h-7.4v0.6c0,1.5,1.2,2.3,2.7,2.3
			c0.9,0,1.9-0.6,2.5-1.5l2.1,1.2c-0.9,1.8-2.7,2.6-4.8,2.6C126.2,19.4,123.6,17.9,123.6,14.7z M131.2,12.3V12
			c0-1.6-1.1-2.2-2.2-2.2c-1.2,0-2.4,0.6-2.4,2.4v0.2h4.6V12.3z"/>
		<path class="st0" d="M142.2,3.1h3.7l4.1,10.1l0,0l4-10.1h3.7v16.1h-2.9V8.5l0,0l-3.7,8.9h-2.4L145,8.6l0,0v10.7h-2.9L142.2,3.1
			L142.2,3.1z"/>
		<path class="st0" d="M160.2,14.7v-2.3c0-3.2,2.4-5.1,5.3-5.1c2.5,0,5,1.5,5,4.5V14h-7.4v0.6c0,1.5,1.2,2.3,2.7,2.3
			c0.9,0,1.9-0.6,2.5-1.5l2.1,1.2c-0.9,1.8-2.7,2.6-4.8,2.6C162.7,19.4,160.2,17.9,160.2,14.7z M167.7,12.3V12
			c0-1.6-1.1-2.2-2.2-2.2c-1.2,0-2.4,0.6-2.4,2.4v0.2h4.6L167.7,12.3L167.7,12.3z"/>
		<path class="st0" d="M172.3,14.9v-2.8c0-3.1,2.2-4.7,4.8-4.7c1.3,0,2.3,0.7,2.9,1.4h0.1V3.1h2.8v16.1h-2.7v-1.3l0,0
			c-0.7,0.9-2.2,1.6-3.2,1.6C174.3,19.4,172.3,17.8,172.3,14.9z M180.1,14.8V12c0-1.4-1.1-2.2-2.5-2.2c-1.2,0-2.4,0.6-2.4,2.3V15
			c0,1.4,1.1,2.2,2.5,2.2C178.8,17.1,180.1,16.5,180.1,14.8z"/>
		<path class="st0" d="M185.5,2.9h2.8v2.9h-2.8V2.9z M185.5,7.6h2.8v11.5h-2.8V7.6z"/>
		<path class="st0" d="M190.2,15.9c0-2.2,2-3.6,4.3-3.6h3.1v-1.1c0-1.2-0.8-1.7-2.2-1.7c-1.2,0-2.1,0.4-2.1,1.2v0.4h-2.5v-0.3
			c0-2.5,2.4-3.4,4.6-3.4c2.6,0,4.9,0.9,4.9,3.7v5.6c0,0.5,0.1,2.2,0.2,2.5h-2.7c0-0.2-0.1-0.9-0.1-1.1l0,0c-1,1.1-1.9,1.3-3.4,1.3
			C191.9,19.4,190.2,18.1,190.2,15.9z M197.6,14.9v-0.6h-2.7c-1.2,0-1.9,0.4-1.9,1.4s0.8,1.5,2.1,1.5
			C197.2,17.2,197.6,16.2,197.6,14.9z"/>
	</g>
	<g>
		<g>
			<path class="st1" d="M56.5,27.3h3.6c1.7,0,2.7,1.1,2.7,2.5c0,1.3-0.8,2.6-2.7,2.6h-1.6v2.7h-2V27.3z M59.8,30.9
				c0.7,0,1.1-0.4,1.1-1c0-0.7-0.5-1-1.2-1h-1.3V31h1.4V30.9z"/>
			<path class="st1" d="M64.4,27.3h3.4c1.8,0,2.8,1,2.8,2.5c0,1-0.5,1.9-1.5,2.3l1.8,3.1h-2.1l-1.6-2.8h-0.9v2.8h-2L64.4,27.3
				L64.4,27.3z M67.6,30.9c0.7,0,1.1-0.4,1.1-1c0-0.7-0.4-1-1.1-1h-1.2V31h1.2V30.9z"/>
			<path class="st1" d="M72.5,27.3h2v7.8h-2V27.3z"/>
			<path class="st1" d="M76.4,27.3h1.9l3,4.4l0,0v-4.4h1.8v7.8h-1.8l-3.1-4.6l0,0v4.6h-1.8V27.3z"/>
			<path class="st1" d="M87,28.8h-2.2v-1.6h6.4v1.6H89v6.3h-2V28.8z"/>
			<path class="st1" d="M92.7,27.3h2v7.8h-2V27.3z"/>
			<path class="st1" d="M96.6,27.3h1.9l3,4.4l0,0v-4.4h1.8v7.8h-1.8l-3.1-4.6l0,0v4.6h-1.8V27.3z"/>
			<path class="st1" d="M105.1,32.4V30c0-1.9,1.6-2.9,3.3-2.9c1.5,0,3.2,0.7,3.2,2.5V30h-1.8v-0.2c0-0.8-0.7-1.1-1.3-1.1
				c-0.7,0-1.4,0.4-1.4,1.3v2.4c0,0.8,0.6,1.3,1.4,1.3c0.7,0,1.3-0.3,1.3-1.2v-0.2h-1.6v-1.5h3.5v1.8c0,1.8-1.7,2.6-3.2,2.6
				C106.7,35.2,105.1,34.4,105.1,32.4z"/>
			<path class="st1" d="M118.4,32.2H116v-1.1h2.4v-2.4h1.1v2.4h2.4v1.1h-2.4v2.4h-1.1V32.2z"/>
			<path class="st1" d="M126,27.3h2l1.1,4.8l0,0l1.2-4.8h1.7l1.2,4.8l0,0l1.1-4.8h1.9l-2,7.9h-1.8l-1.3-5l0,0l-1.3,5H128L126,27.3z"
				/>
			<path class="st1" d="M139.2,27.3h2.1l2.8,7.9h-2l-0.5-1.5h-2.8l-0.5,1.5h-1.9L139.2,27.3z M141.1,32.1l-0.9-2.8l0,0l-0.9,2.8
				H141.1z"/>
			<path class="st1" d="M146.5,32l-2.6-4.7h2.1l1.6,3.1l1.5-3.1h2l-2.6,4.8v3.1h-1.9V32H146.5z"/>
			<path class="st1" d="M152.5,27.3h5.7v1.6h-3.7v1.6h3.1V32h-3.1v3.1h-2V27.3z"/>
			<path class="st1" d="M159.7,27.3h2v7.8h-2V27.3z"/>
			<path class="st1" d="M163.6,27.3h1.9l3,4.4l0,0v-4.4h1.8v7.8h-1.8l-3.1-4.6l0,0v4.6h-1.8L163.6,27.3L163.6,27.3z"/>
			<path class="st1" d="M172.3,27.3h3.3c1.8,0,3.2,0.9,3.2,2.8v2.2c0,1.9-1.5,2.9-3.2,2.9h-3.3V27.3z M175.5,33.5
				c0.7,0,1.3-0.5,1.3-1.3V30c0-0.8-0.6-1.2-1.4-1.2h-1.1v4.6h1.2V33.5z"/>
			<path class="st1" d="M180.6,27.3h2v7.8h-2V27.3z"/>
			<path class="st1" d="M184.5,27.3h1.9l3,4.4l0,0v-4.4h1.8v7.8h-1.8l-3.1-4.6l0,0v4.6h-1.8L184.5,27.3L184.5,27.3z"/>
			<path class="st1" d="M193,32.4V30c0-1.9,1.6-2.9,3.3-2.9c1.5,0,3.2,0.7,3.2,2.5V30h-1.8v-0.2c0-0.8-0.7-1.1-1.3-1.1
				c-0.7,0-1.4,0.4-1.4,1.3v2.4c0,0.8,0.6,1.3,1.4,1.3c0.7,0,1.3-0.3,1.3-1.2v-0.2H196v-1.5h3.5v1.8c0,1.8-1.7,2.6-3.2,2.6
				C194.6,35.2,193,34.4,193,32.4z"/>
		</g>
	</g>
</g>
<g>
	<polygon class="st2" points="0,9.5 0,0 9.5,0 	"/>
	<polygon class="st3" points="9.5,9.5 0,9.5 9.5,0 	"/>
	<polygon class="st4" points="19,9.5 19,0 28.5,0 	"/>
	<polygon class="st5" points="28.5,9.5 19,9.5 28.5,0 	"/>
	<polygon class="st4" points="28.5,0 38,0 38,9.5 	"/>
	<polygon class="st5" points="28.5,9.5 28.5,0 38,9.5 	"/>
	<polygon class="st4" points="0,9.5 9.5,9.5 9.5,19 	"/>
	<polygon class="st5" points="0,19 0,9.5 9.5,19 	"/>
	<polygon class="st3" points="9.5,19 9.5,9.5 19,9.5 	"/>
	<polygon class="st2" points="19,19 9.5,19 19,9.5 	"/>
	<polygon class="st2" points="28.5,19 19,19 19,9.5 	"/>
	<polygon class="st3" points="28.5,9.5 28.5,19 19,9.5 	"/>
	<polygon class="st3" points="0,28.5 0,19 9.5,19 	"/>
	<polygon class="st2" points="9.5,28.5 0,28.5 9.5,19 	"/>
	<polygon class="st4" points="19,28.5 19,19 28.5,19 	"/>
	<polygon class="st5" points="28.5,28.5 19,28.5 28.5,19 	"/>
	<polygon class="st4" points="28.5,19 38,19 38,28.5 	"/>
	<polygon class="st5" points="28.5,28.5 28.5,19 38,28.5 	"/>
	<polygon class="st4" points="0,28.5 9.5,28.5 9.5,38 	"/>
	<polygon class="st5" points="0,38 0,28.5 9.5,38 	"/>
	<polygon class="st2" points="9.5,38 9.5,28.5 19,28.5 	"/>
	<polygon class="st3" points="19,38 9.5,38 19,28.5 	"/>
	<polygon class="st2" points="19,28.5 28.5,28.5 28.5,38 	"/>
	<polygon class="st3" points="19,38 19,28.5 28.5,38 	"/>
</g>
</svg>